STARTFONT 2.1
COMMENT METAFONT output 1995.04.12:1801
COMMENT fontid=MSAM V2.2
COMMENT codingscheme=TeX math symbols
COMMENT fontfacebyte
COMMENT jobname=msam10
COMMENT mag=0.3
COMMENT mode=cx
COMMENT pixels_per_inch=300
COMMENT blacker=0
COMMENT fillin=0.2
COMMENT o_correction=0.6
COMMENT Checksum 97b3eecd
COMMENT 
COMMENT This file is made by pktobdf using the above specified pk file.
COMMENT 
FONT -metafont-msam10-medium-r-normal--12-120-75-75-P-67-MetaFont-FONTSPECIFIC
SIZE 12 75 75
FONTBOUNDINGBOX 15 23 -1 -8
STARTPROPERTIES 21
FONT_ASCENT 11
FONT_DESCENT 5
FOUNDRY "metafont"
FAMILY_NAME "msam10"
WEIGHT_NAME "medium"
SLANT "r"
SETWIDTH_NAME "normal"
ADD_STYLE_NAME ""
PIXEL_SIZE 12
POINT_SIZE 120
RESOLUTOIN_X 75
RESOLUTOIN_Y 75
SPACING "P"
AVERAGE_WIDTH 67
CHARSET_REGISTRY "MetaFont"
CHARSET_ENCODING "FONTSPECIFIC"
AVG_CAPITAL_WIDTH 13
AVG_LOWERCASE_WIDTH 14
COPYRIGHT "MetaFont (public domain)"
DEVICE_FONT_NAME "msam10"
FULLNAME "msam10"
ENDPROPERTIES
CHARS 128
STARTCHAR Gamma
ENCODING 0
SWIDTH 795 0
DWIDTH 10 0
BBX 7 7 1 0
BITMAP
fe
82
82
92
82
82
fe
ENDCHAR
STARTCHAR Delta
ENCODING 1
SWIDTH 795 0
DWIDTH 10 0
BBX 7 7 1 0
BITMAP
fe
92
92
fe
92
92
fe
ENDCHAR
STARTCHAR Theta
ENCODING 2
SWIDTH 795 0
DWIDTH 10 0
BBX 7 7 1 0
BITMAP
fe
c6
aa
92
aa
c6
fe
ENDCHAR
STARTCHAR Lamdba
ENCODING 3
SWIDTH 795 0
DWIDTH 10 0
BBX 7 7 1 0
BITMAP
fe
82
82
82
82
82
fe
ENDCHAR
STARTCHAR Xi
ENCODING 4
SWIDTH 795 0
DWIDTH 10 0
BBX 7 7 1 0
BITMAP
fe
fe
fe
fe
fe
fe
fe
ENDCHAR
STARTCHAR Pi
ENCODING 5
SWIDTH 238 0
DWIDTH 3 0
BBX 2 2 0 -1
BITMAP
c0
c0
ENDCHAR
STARTCHAR Sigma
ENCODING 6
SWIDTH 636 0
DWIDTH 8 0
BBX 5 11 1 -1
BITMAP
20
20
50
50
50
88
88
50
50
20
20
ENDCHAR
STARTCHAR Upsilon
ENCODING 7
SWIDTH 636 0
DWIDTH 8 0
BBX 5 11 1 -1
BITMAP
20
20
70
70
70
f8
f8
70
70
20
20
ENDCHAR
STARTCHAR Phi
ENCODING 8
SWIDTH 795 0
DWIDTH 10 0
BBX 5 7 1 0
BITMAP
70
40
c0
80
80
40
38
ENDCHAR
STARTCHAR Psi
ENCODING 9
SWIDTH 795 0
DWIDTH 10 0
BBX 5 7 3 0
BITMAP
70
10
18
08
08
10
e0
ENDCHAR
STARTCHAR Omega
ENCODING 10
SWIDTH 954 0
DWIDTH 12 0
BBX 9 7 1 0
BITMAP
0100
ff00
0000
0000
ff80
4000
4000
ENDCHAR
STARTCHAR arrowup
ENCODING 11
SWIDTH 954 0
DWIDTH 12 0
BBX 9 7 1 0
BITMAP
4000
7f80
0000
0000
ff80
0100
0100
ENDCHAR
STARTCHAR arrowdown
ENCODING 12
SWIDTH 795 0
DWIDTH 10 0
BBX 7 7 1 0
BITMAP
fe
82
82
fe
82
82
fe
ENDCHAR
STARTCHAR quotesingle
ENCODING 13
SWIDTH 716 0
DWIDTH 9 0
BBX 6 9 1 0
BITMAP
90
90
90
90
9c
90
90
90
90
ENDCHAR
STARTCHAR exclamdown
ENCODING 14
SWIDTH 875 0
DWIDTH 11 0
BBX 8 9 1 0
BITMAP
92
92
92
92
93
92
92
92
92
ENDCHAR
STARTCHAR questiondown
ENCODING 15
SWIDTH 636 0
DWIDTH 8 0
BBX 5 9 1 0
BITMAP
80
80
f8
80
80
f8
80
80
80
ENDCHAR
STARTCHAR dotlessi
ENCODING 16
SWIDTH 954 0
DWIDTH 12 0
BBX 9 5 1 1
BITMAP
0a00
0900
ff80
0900
0a00
ENDCHAR
STARTCHAR dotlessj
ENCODING 17
SWIDTH 954 0
DWIDTH 12 0
BBX 9 5 1 1
BITMAP
2800
4800
ff80
4800
2800
ENDCHAR
STARTCHAR grave
ENCODING 18
SWIDTH 954 0
DWIDTH 12 0
BBX 9 9 1 -1
BITMAP
4000
4000
ff80
4000
2000
4000
ff80
4000
4000
ENDCHAR
STARTCHAR acute
ENCODING 19
SWIDTH 954 0
DWIDTH 12 0
BBX 9 9 1 -1
BITMAP
0100
0100
ff80
0100
0200
0100
ff80
0100
0100
ENDCHAR
STARTCHAR caron
ENCODING 20
SWIDTH 795 0
DWIDTH 10 0
BBX 9 11 0 -2
BITMAP
2200
7700
a280
2200
2200
2200
2200
2200
2200
2200
2200
ENDCHAR
STARTCHAR breve
ENCODING 21
SWIDTH 795 0
DWIDTH 10 0
BBX 9 11 0 -2
BITMAP
2200
2200
2200
2200
2200
2200
2200
2200
a280
7700
2200
ENDCHAR
STARTCHAR macron
ENCODING 22
SWIDTH 397 0
DWIDTH 5 0
BBX 3 11 2 -2
BITMAP
80
c0
a0
80
80
80
80
80
80
80
80
ENDCHAR
STARTCHAR ring
ENCODING 23
SWIDTH 397 0
DWIDTH 5 0
BBX 3 11 2 -2
BITMAP
80
80
80
80
80
80
80
80
a0
c0
80
ENDCHAR
STARTCHAR cedilla
ENCODING 24
SWIDTH 397 0
DWIDTH 5 0
BBX 3 11 -1 -2
BITMAP
20
60
a0
20
20
20
20
20
20
20
20
ENDCHAR
STARTCHAR germandbls
ENCODING 25
SWIDTH 397 0
DWIDTH 5 0
BBX 3 11 -1 -2
BITMAP
20
20
20
20
20
20
20
20
a0
60
20
ENDCHAR
STARTCHAR ae
ENCODING 26
SWIDTH 1113 0
DWIDTH 14 0
BBX 12 5 0 1
BITMAP
8020
4020
7ff0
4020
8020
ENDCHAR
STARTCHAR oe
ENCODING 27
SWIDTH 1113 0
DWIDTH 14 0
BBX 12 5 1 1
BITMAP
4010
4020
ffe0
4020
4010
ENDCHAR
STARTCHAR oslash
ENCODING 28
SWIDTH 954 0
DWIDTH 12 0
BBX 9 8 1 1
BITMAP
4000
7f80
4000
4000
0100
0100
ff80
0100
ENDCHAR
STARTCHAR AE
ENCODING 29
SWIDTH 954 0
DWIDTH 12 0
BBX 9 8 1 1
BITMAP
0100
ff00
0100
0100
4000
4000
ff80
4000
ENDCHAR
STARTCHAR OE
ENCODING 30
SWIDTH 477 0
DWIDTH 6 0
BBX 3 9 1 0
BITMAP
40
e0
60
60
20
20
20
20
20
ENDCHAR
STARTCHAR Oslash
ENCODING 31
SWIDTH 477 0
DWIDTH 6 0
BBX 3 9 1 0
BITMAP
40
e0
c0
c0
80
80
80
80
80
ENDCHAR
STARTCHAR tilde
ENCODING 32
SWIDTH 954 0
DWIDTH 12 0
BBX 10 5 0 1
BITMAP
0100
6380
94c0
0880
0100
ENDCHAR
STARTCHAR exclam
ENCODING 33
SWIDTH 1352 0
DWIDTH 17 0
BBX 14 5 1 1
BITMAP
2010
5328
eb5c
4488
2010
ENDCHAR
STARTCHAR quotedblright
ENCODING 34
SWIDTH 954 0
DWIDTH 12 0
BBX 9 7 1 0
BITMAP
0380
2280
4480
ff80
4200
2200
0200
ENDCHAR
STARTCHAR numbersign
ENCODING 35
SWIDTH 954 0
DWIDTH 12 0
BBX 9 7 1 0
BITMAP
e000
a200
9100
ff80
1100
1200
1000
ENDCHAR
STARTCHAR dollar
ENCODING 36
SWIDTH 795 0
DWIDTH 10 0
BBX 7 10 1 1
BITMAP
10
28
28
38
00
fe
00
00
00
fe
ENDCHAR
STARTCHAR percent
ENCODING 37
SWIDTH 795 0
DWIDTH 10 0
BBX 7 13 1 -4
BITMAP
80
80
40
30
1e
60
80
80
00
00
62
92
8c
ENDCHAR
STARTCHAR ampersand
ENCODING 38
SWIDTH 795 0
DWIDTH 10 0
BBX 7 13 1 -4
BITMAP
80
60
18
06
06
18
60
80
00
00
62
92
8c
ENDCHAR
STARTCHAR quoteright
ENCODING 39
SWIDTH 795 0
DWIDTH 10 0
BBX 7 14 1 -5
BITMAP
80
60
18
06
0c
30
c0
00
62
92
8c
62
92
8c
ENDCHAR
STARTCHAR parenleft
ENCODING 40
SWIDTH 1113 0
DWIDTH 14 0
BBX 11 5 1 1
BITMAP
00c0
0120
ff20
0120
00c0
ENDCHAR
STARTCHAR parenright
ENCODING 41
SWIDTH 636 0
DWIDTH 8 0
BBX 1 1 3 4
BITMAP
80
ENDCHAR
STARTCHAR asterisk
ENCODING 42
SWIDTH 636 0
DWIDTH 8 0
BBX 1 1 3 -1
BITMAP
80
ENDCHAR
STARTCHAR plus
ENCODING 43
SWIDTH 795 0
DWIDTH 10 0
BBX 7 11 1 -2
BITMAP
10
10
00
fe
00
00
00
fe
00
10
10
ENDCHAR
STARTCHAR comma
ENCODING 44
SWIDTH 875 0
DWIDTH 11 0
BBX 8 11 1 1
BITMAP
18
18
24
24
7e
00
ff
00
00
00
ff
ENDCHAR
STARTCHAR hyphen
ENCODING 45
SWIDTH 795 0
DWIDTH 10 0
BBX 7 13 1 -4
BITMAP
02
02
04
18
f0
0c
02
02
00
00
62
92
8c
ENDCHAR
STARTCHAR period
ENCODING 46
SWIDTH 795 0
DWIDTH 10 0
BBX 7 13 1 -4
BITMAP
02
0c
30
c0
c0
30
0c
02
00
00
62
92
8c
ENDCHAR
STARTCHAR slash
ENCODING 47
SWIDTH 795 0
DWIDTH 10 0
BBX 7 14 1 -5
BITMAP
02
0c
30
c0
60
18
06
00
62
92
8c
62
92
8c
ENDCHAR
STARTCHAR 0
ENCODING 48
SWIDTH 795 0
DWIDTH 10 0
BBX 7 11 1 -3
BITMAP
02
0c
30
c2
0c
30
40
c0
30
0c
02
ENDCHAR
STARTCHAR 1
ENCODING 49
SWIDTH 795 0
DWIDTH 10 0
BBX 7 11 1 -3
BITMAP
80
60
18
86
60
18
04
06
18
60
80
ENDCHAR
STARTCHAR 2
ENCODING 50
SWIDTH 795 0
DWIDTH 10 0
BBX 7 10 1 0
BITMAP
04
08
0a
f2
04
78
78
04
02
02
ENDCHAR
STARTCHAR 3
ENCODING 51
SWIDTH 795 0
DWIDTH 10 0
BBX 7 10 1 0
BITMAP
40
20
a0
9e
40
3e
3c
40
80
80
ENDCHAR
STARTCHAR 4
ENCODING 52
SWIDTH 795 0
DWIDTH 10 0
BBX 6 10 2 -2
BITMAP
04
04
08
f0
f0
08
e4
14
10
08
ENDCHAR
STARTCHAR 5
ENCODING 53
SWIDTH 795 0
DWIDTH 10 0
BBX 7 13 1 -4
BITMAP
02
0c
30
c0
c0
30
0c
02
00
fe
00
00
fe
ENDCHAR
STARTCHAR 6
ENCODING 54
SWIDTH 795 0
DWIDTH 10 0
BBX 7 11 1 -3
BITMAP
02
0c
30
c0
c0
30
0c
c2
30
0c
02
ENDCHAR
STARTCHAR 7
ENCODING 55
SWIDTH 795 0
DWIDTH 10 0
BBX 9 13 0 -5
BITMAP
0180
0600
3800
c000
3000
0e00
c180
3000
0e00
0180
0600
3800
c000
ENDCHAR
STARTCHAR 8
ENCODING 56
SWIDTH 238 0
DWIDTH 3 0
BBX 2 7 0 0
BITMAP
80
80
80
40
40
40
40
ENDCHAR
STARTCHAR 9
ENCODING 57
SWIDTH 318 0
DWIDTH 4 0
BBX 4 1 1 3
BITMAP
f0
ENDCHAR
STARTCHAR colon
ENCODING 58
SWIDTH 795 0
DWIDTH 10 0
BBX 7 11 1 -2
BITMAP
02
00
00
fe
00
00
00
fe
00
00
80
ENDCHAR
STARTCHAR semicolon
ENCODING 59
SWIDTH 795 0
DWIDTH 10 0
BBX 7 11 1 -2
BITMAP
80
00
00
fe
00
00
00
fe
00
00
02
ENDCHAR
STARTCHAR less
ENCODING 60
SWIDTH 795 0
DWIDTH 10 0
BBX 7 10 1 -2
BITMAP
80
80
40
3e
3c
40
9e
a0
20
40
ENDCHAR
STARTCHAR equal
ENCODING 61
SWIDTH 795 0
DWIDTH 10 0
BBX 7 13 1 -4
BITMAP
80
60
18
06
06
18
60
80
00
fe
00
00
fe
ENDCHAR
STARTCHAR greater
ENCODING 62
SWIDTH 795 0
DWIDTH 10 0
BBX 7 11 1 -3
BITMAP
80
60
18
06
06
18
60
86
18
60
80
ENDCHAR
STARTCHAR question
ENCODING 63
SWIDTH 795 0
DWIDTH 10 0
BBX 7 13 1 -5
BITMAP
80
60
18
06
0c
30
c2
0c
30
c0
60
18
06
ENDCHAR
STARTCHAR at
ENCODING 64
SWIDTH 795 0
DWIDTH 10 0
BBX 8 8 1 -1
BITMAP
ff
80
80
80
80
80
80
ff
ENDCHAR
STARTCHAR A
ENCODING 65
SWIDTH 795 0
DWIDTH 10 0
BBX 9 8 0 -1
BITMAP
ff80
0080
0080
0080
0080
0080
0080
7f80
ENDCHAR
STARTCHAR B
ENCODING 66
SWIDTH 795 0
DWIDTH 10 0
BBX 7 8 1 -1
BITMAP
80
e0
98
86
86
98
e0
80
ENDCHAR
STARTCHAR C
ENCODING 67
SWIDTH 795 0
DWIDTH 10 0
BBX 6 8 2 -1
BITMAP
04
1c
24
c4
c4
24
1c
04
ENDCHAR
STARTCHAR D
ENCODING 68
SWIDTH 795 0
DWIDTH 10 0
BBX 7 11 1 -3
BITMAP
80
e0
98
86
86
98
e0
80
00
00
fe
ENDCHAR
STARTCHAR E
ENCODING 69
SWIDTH 795 0
DWIDTH 10 0
BBX 6 11 2 -3
BITMAP
04
1c
24
c4
c4
24
1c
04
00
00
fc
ENDCHAR
STARTCHAR F
ENCODING 70
SWIDTH 954 0
DWIDTH 12 0
BBX 10 7 1 0
BITMAP
0c00
ffc0
3f00
1e00
1e00
1200
2100
ENDCHAR
STARTCHAR G
ENCODING 71
SWIDTH 477 0
DWIDTH 6 0
BBX 3 12 1 -3
BITMAP
a0
40
a0
a0
a0
a0
a0
a0
a0
a0
40
a0
ENDCHAR
STARTCHAR H
ENCODING 72
SWIDTH 716 0
DWIDTH 9 0
BBX 6 8 1 0
BITMAP
78
fc
78
78
78
30
30
30
ENDCHAR
STARTCHAR I
ENCODING 73
SWIDTH 795 0
DWIDTH 10 0
BBX 7 8 1 -1
BITMAP
80
e0
f8
fe
fe
f8
e0
80
ENDCHAR
STARTCHAR J
ENCODING 74
SWIDTH 795 0
DWIDTH 10 0
BBX 6 8 2 -1
BITMAP
04
1c
3c
fc
fc
3c
1c
04
ENDCHAR
STARTCHAR K
ENCODING 75
SWIDTH 875 0
DWIDTH 11 0
BBX 5 5 0 1
BITMAP
60
30
f8
30
60
ENDCHAR
STARTCHAR L
ENCODING 76
SWIDTH 954 0
DWIDTH 12 0
BBX 5 5 0 1
BITMAP
30
70
f8
70
30
ENDCHAR
STARTCHAR M
ENCODING 77
SWIDTH 716 0
DWIDTH 9 0
BBX 6 7 1 0
BITMAP
30
30
30
48
48
48
fc
ENDCHAR
STARTCHAR N
ENCODING 78
SWIDTH 716 0
DWIDTH 9 0
BBX 6 7 1 0
BITMAP
30
30
30
78
78
78
fc
ENDCHAR
STARTCHAR O
ENCODING 79
SWIDTH 716 0
DWIDTH 9 0
BBX 6 8 1 0
BITMAP
78
84
48
48
48
30
30
30
ENDCHAR
STARTCHAR P
ENCODING 80
SWIDTH 795 0
DWIDTH 10 0
BBX 7 5 1 1
BITMAP
fe
00
00
00
fe
ENDCHAR
STARTCHAR Q
ENCODING 81
SWIDTH 795 0
DWIDTH 10 0
BBX 7 19 1 -8
BITMAP
06
18
60
80
60
18
06
00
00
fc
00
00
80
60
18
04
18
60
80
ENDCHAR
STARTCHAR R
ENCODING 82
SWIDTH 795 0
DWIDTH 10 0
BBX 7 19 1 -8
BITMAP
80
60
18
06
18
60
80
00
00
fc
00
00
04
18
60
80
60
18
04
ENDCHAR
STARTCHAR S
ENCODING 83
SWIDTH 795 0
DWIDTH 10 0
BBX 7 22 1 -7
BITMAP
06
18
60
c0
30
0c
02
00
00
fe
00
00
fe
00
00
80
60
18
06
0c
30
c0
ENDCHAR
STARTCHAR T
ENCODING 84
SWIDTH 795 0
DWIDTH 10 0
BBX 7 22 1 -7
BITMAP
c0
30
0c
06
18
60
80
00
00
fe
00
00
fe
00
00
02
0c
30
c0
60
18
06
ENDCHAR
STARTCHAR U
ENCODING 85
SWIDTH 716 0
DWIDTH 9 0
BBX 8 9 0 0
BITMAP
e7
24
24
7e
18
08
7e
08
1c
ENDCHAR
STARTCHAR V
ENCODING 86
SWIDTH 954 0
DWIDTH 12 0
BBX 8 11 1 -2
BITMAP
08
0c
fc
06
02
ff
02
06
fc
0c
08
ENDCHAR
STARTCHAR W
ENCODING 87
SWIDTH 954 0
DWIDTH 12 0
BBX 8 11 2 -2
BITMAP
10
30
3f
60
40
ff
40
60
3f
30
10
ENDCHAR
STARTCHAR X
ENCODING 88
SWIDTH 795 0
DWIDTH 10 0
BBX 7 9 1 0
BITMAP
02
04
08
10
10
a0
a0
60
60
ENDCHAR
STARTCHAR Y
ENCODING 89
SWIDTH 636 0
DWIDTH 8 0
BBX 5 9 1 0
BITMAP
88
48
50
30
30
00
00
00
f8
ENDCHAR
STARTCHAR Z
ENCODING 90
SWIDTH 636 0
DWIDTH 8 0
BBX 5 9 1 0
BITMAP
f8
00
00
10
30
50
50
88
88
ENDCHAR
STARTCHAR bracketleft
ENCODING 91
SWIDTH 636 0
DWIDTH 8 0
BBX 5 13 1 -2
BITMAP
f8
00
00
f8
00
00
00
30
30
50
48
88
88
ENDCHAR
STARTCHAR leftdblquote
ENCODING 92
SWIDTH 716 0
DWIDTH 9 0
BBX 6 9 1 0
BITMAP
04
08
08
10
20
20
40
40
fc
ENDCHAR
STARTCHAR bracketright
ENCODING 93
SWIDTH 716 0
DWIDTH 9 0
BBX 6 9 1 0
BITMAP
04
08
08
10
20
20
50
50
fc
ENDCHAR
STARTCHAR circumflex
ENCODING 94
SWIDTH 716 0
DWIDTH 9 0
BBX 7 7 1 0
BITMAP
0c
12
62
82
62
12
0c
ENDCHAR
STARTCHAR dotaccent
ENCODING 95
SWIDTH 795 0
DWIDTH 10 0
BBX 7 5 1 1
BITMAP
76
8c
88
8c
76
ENDCHAR
STARTCHAR leftquote
ENCODING 96
SWIDTH 795 0
DWIDTH 10 0
BBX 7 2 1 3
BITMAP
82
7c
ENDCHAR
STARTCHAR a
ENCODING 97
SWIDTH 795 0
DWIDTH 10 0
BBX 7 3 1 2
BITMAP
38
44
82
ENDCHAR
STARTCHAR b
ENCODING 98
SWIDTH 795 0
DWIDTH 10 0
BBX 7 9 1 -1
BITMAP
3e
40
80
9e
a0
9e
80
40
3e
ENDCHAR
STARTCHAR c
ENCODING 99
SWIDTH 795 0
DWIDTH 10 0
BBX 7 9 1 -1
BITMAP
f8
04
02
f2
0a
f2
02
04
f8
ENDCHAR
STARTCHAR d
ENCODING 100
SWIDTH 636 0
DWIDTH 8 0
BBX 5 8 1 0
BITMAP
a8
a8
a8
a8
a8
a8
88
70
ENDCHAR
STARTCHAR e
ENCODING 101
SWIDTH 636 0
DWIDTH 8 0
BBX 5 8 1 0
BITMAP
70
88
a8
a8
a8
a8
a8
a8
ENDCHAR
STARTCHAR f
ENCODING 102
SWIDTH 716 0
DWIDTH 9 0
BBX 6 7 1 0
BITMAP
10
10
10
10
10
28
cc
ENDCHAR
STARTCHAR g
ENCODING 103
SWIDTH 716 0
DWIDTH 9 0
BBX 6 7 1 0
BITMAP
cc
28
10
10
10
10
10
ENDCHAR
STARTCHAR h
ENCODING 104
SWIDTH 795 0
DWIDTH 10 0
BBX 7 9 1 0
BITMAP
80
40
40
20
10
28
44
44
82
ENDCHAR
STARTCHAR i
ENCODING 105
SWIDTH 795 0
DWIDTH 10 0
BBX 7 9 1 0
BITMAP
02
04
04
08
10
28
44
44
82
ENDCHAR
STARTCHAR j
ENCODING 106
SWIDTH 795 0
DWIDTH 10 0
BBX 7 14 1 -5
BITMAP
3e
40
80
80
80
80
40
3e
00
00
fe
00
00
fe
ENDCHAR
STARTCHAR k
ENCODING 107
SWIDTH 795 0
DWIDTH 10 0
BBX 7 14 1 -5
BITMAP
f8
04
02
02
02
02
04
f8
00
00
fe
00
00
fe
ENDCHAR
STARTCHAR l
ENCODING 108
SWIDTH 795 0
DWIDTH 10 0
BBX 7 6 1 1
BITMAP
10
ee
00
00
00
fe
ENDCHAR
STARTCHAR m
ENCODING 109
SWIDTH 795 0
DWIDTH 10 0
BBX 7 7 1 0
BITMAP
10
ee
00
00
00
ee
10
ENDCHAR
STARTCHAR n
ENCODING 110
SWIDTH 1352 0
DWIDTH 17 0
BBX 14 9 1 -1
BITMAP
0264
0c98
1320
64c0
9900
64c0
1320
0c98
0264
ENDCHAR
STARTCHAR o
ENCODING 111
SWIDTH 1352 0
DWIDTH 17 0
BBX 14 9 1 -1
BITMAP
9300
6c80
1b60
04d8
0324
04d8
1b60
6c80
9300
ENDCHAR
STARTCHAR p
ENCODING 112
SWIDTH 477 0
DWIDTH 6 0
BBX 3 3 1 6
BITMAP
e0
80
80
ENDCHAR
STARTCHAR q
ENCODING 113
SWIDTH 477 0
DWIDTH 6 0
BBX 3 3 1 6
BITMAP
e0
20
20
ENDCHAR
STARTCHAR r
ENCODING 114
SWIDTH 954 0
DWIDTH 12 0
BBX 11 12 0 -3
BITMAP
0e00
3180
4040
be20
9120
9e20
9120
9120
b9a0
4040
3180
0e00
ENDCHAR
STARTCHAR s
ENCODING 115
SWIDTH 875 0
DWIDTH 11 0
BBX 12 12 -1 -3
BITMAP
0f00
30c0
4020
4620
8410
8410
8210
8210
4620
2040
1980
0600
ENDCHAR
STARTCHAR t
ENCODING 116
SWIDTH 636 0
DWIDTH 8 0
BBX 5 10 1 0
BITMAP
20
20
20
70
a8
a8
a8
a8
a8
a8
ENDCHAR
STARTCHAR u
ENCODING 117
SWIDTH 795 0
DWIDTH 10 0
BBX 7 11 1 0
BITMAP
10
38
38
00
10
10
10
fe
10
10
10
ENDCHAR
STARTCHAR v
ENCODING 118
SWIDTH 795 0
DWIDTH 10 0
BBX 7 3 1 2
BITMAP
8c
92
62
ENDCHAR
STARTCHAR w
ENCODING 119
SWIDTH 795 0
DWIDTH 10 0
BBX 7 6 1 0
BITMAP
8c
92
62
00
00
fe
ENDCHAR
STARTCHAR x
ENCODING 120
SWIDTH 477 0
DWIDTH 6 0
BBX 3 3 1 0
BITMAP
80
80
e0
ENDCHAR
STARTCHAR y
ENCODING 121
SWIDTH 477 0
DWIDTH 6 0
BBX 3 3 1 0
BITMAP
20
20
e0
ENDCHAR
STARTCHAR z
ENCODING 122
SWIDTH 795 0
DWIDTH 10 0
BBX 9 9 0 0
BITMAP
3e00
1c00
8880
c980
ff80
c980
8880
1c00
3e00
ENDCHAR
STARTCHAR endash
ENCODING 123
SWIDTH 477 0
DWIDTH 6 0
BBX 3 10 1 0
BITMAP
40
e0
e0
e0
c0
c0
e0
e0
e0
40
ENDCHAR
STARTCHAR emdash
ENCODING 124
SWIDTH 556 0
DWIDTH 7 0
BBX 4 7 1 -2
BITMAP
f0
f0
60
60
60
60
60
ENDCHAR
STARTCHAR quotedbl
ENCODING 125
SWIDTH 795 0
DWIDTH 10 0
BBX 7 7 1 0
BITMAP
38
44
92
aa
92
44
38
ENDCHAR
STARTCHAR hungarumlaut
ENCODING 126
SWIDTH 795 0
DWIDTH 10 0
BBX 9 9 0 -1
BITMAP
3e00
4100
8880
be80
9c80
be80
8880
4100
3e00
ENDCHAR
STARTCHAR dieresis
ENCODING 127
SWIDTH 795 0
DWIDTH 10 0
BBX 7 7 1 0
BITMAP
38
44
82
ba
82
44
38
ENDCHAR
ENDFONT
